<mxfile host="app.diagrams.net" modified="2023-07-13T02:37:29.507Z" agent="Mozilla/5.0 (Macintosh; Intel Mac OS X 10_15_7) AppleWebKit/537.36 (KHTML, like Gecko) Chrome/114.0.0.0 Safari/537.36" version="21.6.1" etag="IeO-fNU4sb7mfYMaoflv" type="github">
  <diagram name="第 1 页" id="xVVCOYDAX57umiOuxavn">
    <mxGraphModel>
      <root>
        <mxCell id="0" />
        <mxCell id="1" parent="0" />
      </root>
    </mxGraphModel>
  </diagram>
</mxfile>
